<?xml version="1.0" encoding="UTF-8" standalone="no"?>
<!DOCTYPE svg PUBLIC "-//W3C//DTD SVG 1.1//EN"
 "http://www.w3.org/Graphics/SVG/1.1/DTD/svg11.dtd">
<!-- Generated by graphviz version 12.2.1 (20241206.2353)
 -->
<!-- Title: FERS_config.h Pages: 1 -->
<svg width="711pt" height="142pt"
 viewBox="0.00 0.00 711.00 142.25" xmlns="http://www.w3.org/2000/svg" xmlns:xlink="http://www.w3.org/1999/xlink">
<g id="graph0" class="graph" transform="scale(1 1) rotate(0) translate(4 138.25)">
<title>FERS_config.h</title>
<!-- Node1 -->
<g id="Node000001" class="node">
<title>Node1</title>
<g id="a_Node000001"><a xlink:title=" ">
<polygon fill="#999999" stroke="#666666" points="563.88,-134.25 482.62,-134.25 482.62,-113.5 563.88,-113.5 563.88,-134.25"/>
<text text-anchor="middle" x="523.25" y="-120.75" font-family="Helvetica,sans-Serif" font-size="10.00">FERS_config.h</text>
</a>
</g>
</g>
<!-- Node2 -->
<g id="Node000002" class="node">
<title>Node2</title>
<g id="a_Node000002"><a xlink:href="a00062.html" target="_top" xlink:title="CAEN FERS Library.">
<polygon fill="white" stroke="#666666" points="336.62,-77.5 277.88,-77.5 277.88,-56.75 336.62,-56.75 336.62,-77.5"/>
<text text-anchor="middle" x="307.25" y="-64" font-family="Helvetica,sans-Serif" font-size="10.00">FERSlib.h</text>
</a>
</g>
</g>
<!-- Node1&#45;&gt;Node2 -->
<g id="edge1_Node000001_Node000002" class="edge">
<title>Node1&#45;&gt;Node2</title>
<g id="a_edge1_Node000001_Node000002"><a xlink:title=" ">
<path fill="none" stroke="#63b8ff" d="M484.63,-113.09C446.09,-103.32 387.1,-88.36 347.86,-78.42"/>
<polygon fill="#63b8ff" stroke="#63b8ff" points="348.88,-75.07 338.33,-76 347.16,-81.85 348.88,-75.07"/>
</a>
</g>
</g>
<!-- Node8 -->
<g id="Node000008" class="node">
<title>Node8</title>
<g id="a_Node000008"><a xlink:href="a00071.html" target="_top" xlink:title=" ">
<polygon fill="white" stroke="#666666" points="565.12,-20.75 443.38,-20.75 443.38,0 565.12,0 565.12,-20.75"/>
<text text-anchor="middle" x="504.25" y="-7.25" font-family="Helvetica,sans-Serif" font-size="10.00">FERS_Registers_520X.h</text>
</a>
</g>
</g>
<!-- Node1&#45;&gt;Node8 -->
<g id="edge11_Node000001_Node000008" class="edge">
<title>Node1&#45;&gt;Node8</title>
<g id="a_edge11_Node000001_Node000008"><a xlink:title=" ">
<path fill="none" stroke="#63b8ff" d="M521.63,-113.37C518.59,-95.52 511.96,-56.61 507.82,-32.34"/>
<polygon fill="#63b8ff" stroke="#63b8ff" points="511.3,-31.94 506.17,-22.67 504.4,-33.11 511.3,-31.94"/>
</a>
</g>
</g>
<!-- Node9 -->
<g id="Node000009" class="node">
<title>Node9</title>
<g id="a_Node000009"><a xlink:href="a00068.html" target="_top" xlink:title=" ">
<polygon fill="white" stroke="#666666" points="703,-20.75 583.5,-20.75 583.5,0 703,0 703,-20.75"/>
<text text-anchor="middle" x="643.25" y="-7.25" font-family="Helvetica,sans-Serif" font-size="10.00">FERS_Registers_5215.h</text>
</a>
</g>
</g>
<!-- Node1&#45;&gt;Node9 -->
<g id="edge12_Node000001_Node000009" class="edge">
<title>Node1&#45;&gt;Node9</title>
<g id="a_edge12_Node000001_Node000009"><a xlink:title=" ">
<path fill="none" stroke="#63b8ff" d="M526.82,-113.27C532.38,-99.37 544.26,-73.47 561.25,-56.75 574.35,-43.86 591.85,-33.51 607.32,-25.97"/>
<polygon fill="#63b8ff" stroke="#63b8ff" points="608.64,-29.22 616.25,-21.84 605.7,-22.86 608.64,-29.22"/>
</a>
</g>
</g>
<!-- Node11 -->
<g id="Node000011" class="node">
<title>Node11</title>
<g id="a_Node000011"><a xlink:title=" ">
<polygon fill="#e0e0e0" stroke="#999999" points="686.12,-77.5 570.38,-77.5 570.38,-56.75 686.12,-56.75 686.12,-77.5"/>
<text text-anchor="middle" x="628.25" y="-64" font-family="Helvetica,sans-Serif" font-size="10.00">FERS_MultiPlatform.h</text>
</a>
</g>
</g>
<!-- Node1&#45;&gt;Node11 -->
<g id="edge10_Node000001_Node000011" class="edge">
<title>Node1&#45;&gt;Node11</title>
<g id="a_edge10_Node000001_Node000011"><a xlink:title=" ">
<path fill="none" stroke="#63b8ff" d="M542.02,-113.09C558,-104.76 581.2,-92.66 599.51,-83.11"/>
<polygon fill="#63b8ff" stroke="#63b8ff" points="601.05,-86.26 608.3,-78.53 597.81,-80.05 601.05,-86.26"/>
</a>
</g>
</g>
<!-- Node3 -->
<g id="Node000003" class="node">
<title>Node3</title>
<g id="a_Node000003"><a xlink:title=" ">
<polygon fill="#e0e0e0" stroke="#999999" points="50.5,-20.75 0,-20.75 0,0 50.5,0 50.5,-20.75"/>
<text text-anchor="middle" x="25.25" y="-7.25" font-family="Helvetica,sans-Serif" font-size="10.00">stdint.h</text>
</a>
</g>
</g>
<!-- Node2&#45;&gt;Node3 -->
<g id="edge2_Node000002_Node000003" class="edge">
<title>Node2&#45;&gt;Node3</title>
<g id="a_edge2_Node000002_Node000003"><a xlink:title=" ">
<path fill="none" stroke="#63b8ff" d="M277.68,-61.58C233.02,-54.53 145.49,-39.99 62.02,-21.23"/>
<polygon fill="#63b8ff" stroke="#63b8ff" points="62.81,-17.82 52.28,-19.02 61.26,-24.65 62.81,-17.82"/>
</a>
</g>
</g>
<!-- Node4 -->
<g id="Node000004" class="node">
<title>Node4</title>
<g id="a_Node000004"><a xlink:title=" ">
<polygon fill="#e0e0e0" stroke="#999999" points="118.12,-20.75 68.38,-20.75 68.38,0 118.12,0 118.12,-20.75"/>
<text text-anchor="middle" x="93.25" y="-7.25" font-family="Helvetica,sans-Serif" font-size="10.00">stdlib.h</text>
</a>
</g>
</g>
<!-- Node2&#45;&gt;Node4 -->
<g id="edge3_Node000002_Node000004" class="edge">
<title>Node2&#45;&gt;Node4</title>
<g id="a_edge3_Node000002_Node000004"><a xlink:title=" ">
<path fill="none" stroke="#63b8ff" d="M277.58,-58.86C243.95,-50.58 187.22,-36.47 129.31,-21.25"/>
<polygon fill="#63b8ff" stroke="#63b8ff" points="130.51,-17.95 119.95,-18.79 128.73,-24.72 130.51,-17.95"/>
</a>
</g>
</g>
<!-- Node5 -->
<g id="Node000005" class="node">
<title>Node5</title>
<g id="a_Node000005"><a xlink:title=" ">
<polygon fill="#e0e0e0" stroke="#999999" points="182.62,-20.75 135.88,-20.75 135.88,0 182.62,0 182.62,-20.75"/>
<text text-anchor="middle" x="159.25" y="-7.25" font-family="Helvetica,sans-Serif" font-size="10.00">stdio.h</text>
</a>
</g>
</g>
<!-- Node2&#45;&gt;Node5 -->
<g id="edge4_Node000002_Node000005" class="edge">
<title>Node2&#45;&gt;Node5</title>
<g id="a_edge4_Node000002_Node000005"><a xlink:title=" ">
<path fill="none" stroke="#63b8ff" d="M280.79,-56.34C256.49,-47.35 220.33,-33.97 193.77,-24.15"/>
<polygon fill="#63b8ff" stroke="#63b8ff" points="195.05,-20.89 184.46,-20.7 192.62,-27.45 195.05,-20.89"/>
</a>
</g>
</g>
<!-- Node6 -->
<g id="Node000006" class="node">
<title>Node6</title>
<g id="a_Node000006"><a xlink:title=" ">
<polygon fill="#e0e0e0" stroke="#999999" points="249.38,-20.75 201.12,-20.75 201.12,0 249.38,0 249.38,-20.75"/>
<text text-anchor="middle" x="225.25" y="-7.25" font-family="Helvetica,sans-Serif" font-size="10.00">math.h</text>
</a>
</g>
</g>
<!-- Node2&#45;&gt;Node6 -->
<g id="edge5_Node000002_Node000006" class="edge">
<title>Node2&#45;&gt;Node6</title>
<g id="a_edge5_Node000002_Node000006"><a xlink:title=" ">
<path fill="none" stroke="#63b8ff" d="M292.59,-56.34C280.58,-48.32 263.34,-36.81 249.31,-27.44"/>
<polygon fill="#63b8ff" stroke="#63b8ff" points="251.3,-24.56 241.04,-21.92 247.41,-30.38 251.3,-24.56"/>
</a>
</g>
</g>
<!-- Node7 -->
<g id="Node000007" class="node">
<title>Node7</title>
<g id="a_Node000007"><a xlink:title=" ">
<polygon fill="#e0e0e0" stroke="#999999" points="347.5,-20.75 267,-20.75 267,0 347.5,0 347.5,-20.75"/>
<text text-anchor="middle" x="307.25" y="-7.25" font-family="Helvetica,sans-Serif" font-size="10.00">ExportTypes.h</text>
</a>
</g>
</g>
<!-- Node2&#45;&gt;Node7 -->
<g id="edge6_Node000002_Node000007" class="edge">
<title>Node2&#45;&gt;Node7</title>
<g id="a_edge6_Node000002_Node000007"><a xlink:title=" ">
<path fill="none" stroke="#63b8ff" d="M307.25,-56.34C307.25,-49.72 307.25,-40.72 307.25,-32.52"/>
<polygon fill="#63b8ff" stroke="#63b8ff" points="310.75,-32.59 307.25,-22.59 303.75,-32.59 310.75,-32.59"/>
</a>
</g>
</g>
<!-- Node2&#45;&gt;Node8 -->
<g id="edge7_Node000002_Node000008" class="edge">
<title>Node2&#45;&gt;Node8</title>
<g id="a_edge7_Node000002_Node000008"><a xlink:title=" ">
<path fill="none" stroke="#63b8ff" d="M336.74,-57.93C368.88,-49 420.72,-34.59 458.23,-24.17"/>
<polygon fill="#63b8ff" stroke="#63b8ff" points="458.73,-27.66 467.43,-21.61 456.85,-20.91 458.73,-27.66"/>
</a>
</g>
</g>
<!-- Node2&#45;&gt;Node9 -->
<g id="edge8_Node000002_Node000009" class="edge">
<title>Node2&#45;&gt;Node9</title>
<g id="a_edge8_Node000002_Node000009"><a xlink:title=" ">
<path fill="none" stroke="#63b8ff" d="M337.07,-61.27C389.47,-52.73 499.41,-34.81 572.28,-22.94"/>
<polygon fill="#63b8ff" stroke="#63b8ff" points="572.4,-26.47 581.71,-21.4 571.27,-19.56 572.4,-26.47"/>
</a>
</g>
</g>
<!-- Node10 -->
<g id="Node000010" class="node">
<title>Node10</title>
<g id="a_Node000010"><a xlink:title=" ">
<polygon fill="#e0e0e0" stroke="#999999" points="425,-20.75 365.5,-20.75 365.5,0 425,0 425,-20.75"/>
<text text-anchor="middle" x="395.25" y="-7.25" font-family="Helvetica,sans-Serif" font-size="10.00">stdbool.h</text>
</a>
</g>
</g>
<!-- Node2&#45;&gt;Node10 -->
<g id="edge9_Node000002_Node000010" class="edge">
<title>Node2&#45;&gt;Node10</title>
<g id="a_edge9_Node000002_Node000010"><a xlink:title=" ">
<path fill="none" stroke="#63b8ff" d="M322.98,-56.34C336.12,-48.16 355.09,-36.36 370.3,-26.9"/>
<polygon fill="#63b8ff" stroke="#63b8ff" points="371.73,-30.13 378.37,-21.88 368.03,-24.19 371.73,-30.13"/>
</a>
</g>
</g>
</g>
</svg>
