<?xml version="1.0" encoding="UTF-8" standalone="no"?>
<!DOCTYPE svg PUBLIC "-//W3C//DTD SVG 1.1//EN"
 "http://www.w3.org/Graphics/SVG/1.1/DTD/svg11.dtd">
<!-- Generated by graphviz version 12.2.1 (20241206.2353)
 -->
<!-- Title: FERS_Registers_5215.h Pages: 1 -->
<svg width="128pt" height="142pt"
 viewBox="0.00 0.00 127.50 142.25" xmlns="http://www.w3.org/2000/svg" xmlns:xlink="http://www.w3.org/1999/xlink">
<g id="graph0" class="graph" transform="scale(1 1) rotate(0) translate(4 138.25)">
<title>FERS_Registers_5215.h</title>
<!-- Node1 -->
<g id="Node000001" class="node">
<title>Node1</title>
<g id="a_Node000001"><a xlink:title=" ">
<polygon fill="#999999" stroke="#666666" points="119.5,-134.25 0,-134.25 0,-113.5 119.5,-113.5 119.5,-134.25"/>
<text text-anchor="middle" x="59.75" y="-120.75" font-family="Helvetica,sans-Serif" font-size="10.00">FERS_Registers_5215.h</text>
</a>
</g>
</g>
<!-- Node2 -->
<g id="Node000002" class="node">
<title>Node2</title>
<g id="a_Node000002"><a xlink:href="a00065.html" target="_top" xlink:title=" ">
<polygon fill="white" stroke="#666666" points="100.38,-20.75 19.12,-20.75 19.12,0 100.38,0 100.38,-20.75"/>
<text text-anchor="middle" x="59.75" y="-7.25" font-family="Helvetica,sans-Serif" font-size="10.00">FERS_config.h</text>
</a>
</g>
</g>
<!-- Node1&#45;&gt;Node2 -->
<g id="edge1_Node000001_Node000002" class="edge">
<title>Node1&#45;&gt;Node2</title>
<g id="a_edge1_Node000001_Node000002"><a xlink:title=" ">
<path fill="none" stroke="#63b8ff" d="M54.73,-102.03C53.12,-94.37 51.54,-85.59 50.75,-77.5 49.85,-68.32 49.85,-65.93 50.75,-56.75 51.97,-44.28 55.05,-30.16 57.26,-21.03"/>
<polygon fill="#63b8ff" stroke="#63b8ff" points="51.3,-102.77 56.93,-111.74 58.13,-101.22 51.3,-102.77"/>
</a>
</g>
</g>
<!-- Node3 -->
<g id="Node000003" class="node">
<title>Node3</title>
<g id="a_Node000003"><a xlink:href="a00062.html" target="_top" xlink:title="CAEN FERS Library.">
<polygon fill="white" stroke="#666666" points="118.12,-77.5 59.38,-77.5 59.38,-56.75 118.12,-56.75 118.12,-77.5"/>
<text text-anchor="middle" x="88.75" y="-64" font-family="Helvetica,sans-Serif" font-size="10.00">FERSlib.h</text>
</a>
</g>
</g>
<!-- Node1&#45;&gt;Node3 -->
<g id="edge2_Node000001_Node000003" class="edge">
<title>Node1&#45;&gt;Node3</title>
<g id="a_edge2_Node000001_Node000003"><a xlink:title=" ">
<path fill="none" stroke="#63b8ff" d="M70.24,-103.07C74.79,-94.48 79.91,-84.81 83.61,-77.83"/>
<polygon fill="#63b8ff" stroke="#63b8ff" points="67.23,-101.27 65.64,-111.75 73.42,-104.55 67.23,-101.27"/>
</a>
</g>
</g>
<!-- Node3&#45;&gt;Node2 -->
<g id="edge3_Node000003_Node000002" class="edge">
<title>Node3&#45;&gt;Node2</title>
<g id="a_edge3_Node000003_Node000002"><a xlink:title=" ">
<path fill="none" stroke="#63b8ff" d="M78.26,-46.32C73.71,-37.73 68.59,-28.06 64.89,-21.08"/>
<polygon fill="#63b8ff" stroke="#63b8ff" points="75.08,-47.8 82.86,-55 81.27,-44.52 75.08,-47.8"/>
</a>
</g>
</g>
</g>
</svg>
