<?xml version="1.0" encoding="UTF-8" standalone="no"?>
<!DOCTYPE svg PUBLIC "-//W3C//DTD SVG 1.1//EN"
 "http://www.w3.org/Graphics/SVG/1.1/DTD/svg11.dtd">
<!-- Generated by graphviz version 12.2.1 (20241206.2353)
 -->
<!-- Title: ServEvent5203_t Pages: 1 -->
<svg width="99pt" height="297pt"
 viewBox="0.00 0.00 98.75 296.75" xmlns="http://www.w3.org/2000/svg" xmlns:xlink="http://www.w3.org/1999/xlink">
<g id="graph0" class="graph" transform="scale(1 1) rotate(0) translate(4 292.75)">
<title>ServEvent5203_t</title>
<!-- Node1 -->
<g id="Node000001" class="node">
<title>Node1</title>
<g id="a_Node000001"><a xlink:title=" ">
<polygon fill="#999999" stroke="none" points="90.75,-288.75 0,-288.75 0,0 90.75,0 90.75,-288.75"/>
<text text-anchor="start" x="7.88" y="-275.25" font-family="Helvetica,sans-Serif" font-size="10.00">ServEvent5203_t</text>
<text text-anchor="start" x="4" y="-258.5" font-family="Helvetica,sans-Serif" font-size="10.00">+</text>
<text text-anchor="start" x="14" y="-258.5" font-family="Helvetica,sans-Serif" font-size="10.00">tstamp_us</text>
<text text-anchor="start" x="4" y="-241.75" font-family="Helvetica,sans-Serif" font-size="10.00">+</text>
<text text-anchor="start" x="14" y="-241.75" font-family="Helvetica,sans-Serif" font-size="10.00">update_time</text>
<text text-anchor="start" x="4" y="-225" font-family="Helvetica,sans-Serif" font-size="10.00">+</text>
<text text-anchor="start" x="14" y="-225" font-family="Helvetica,sans-Serif" font-size="10.00">pkt_size</text>
<text text-anchor="start" x="4" y="-208.25" font-family="Helvetica,sans-Serif" font-size="10.00">+</text>
<text text-anchor="start" x="14" y="-208.25" font-family="Helvetica,sans-Serif" font-size="10.00">format</text>
<text text-anchor="start" x="4" y="-191.5" font-family="Helvetica,sans-Serif" font-size="10.00">+</text>
<text text-anchor="start" x="14" y="-191.5" font-family="Helvetica,sans-Serif" font-size="10.00">ch_trg_cnt</text>
<text text-anchor="start" x="4" y="-174.75" font-family="Helvetica,sans-Serif" font-size="10.00">+</text>
<text text-anchor="start" x="14" y="-174.75" font-family="Helvetica,sans-Serif" font-size="10.00">tempFPGA</text>
<text text-anchor="start" x="4" y="-158" font-family="Helvetica,sans-Serif" font-size="10.00">+</text>
<text text-anchor="start" x="14" y="-158" font-family="Helvetica,sans-Serif" font-size="10.00">tempBoard</text>
<text text-anchor="start" x="4" y="-141.25" font-family="Helvetica,sans-Serif" font-size="10.00">+</text>
<text text-anchor="start" x="14" y="-141.25" font-family="Helvetica,sans-Serif" font-size="10.00">tempTDC</text>
<text text-anchor="start" x="4" y="-124.5" font-family="Helvetica,sans-Serif" font-size="10.00">+</text>
<text text-anchor="start" x="14" y="-124.5" font-family="Helvetica,sans-Serif" font-size="10.00">Status</text>
<text text-anchor="start" x="4" y="-107.75" font-family="Helvetica,sans-Serif" font-size="10.00">+</text>
<text text-anchor="start" x="14" y="-107.75" font-family="Helvetica,sans-Serif" font-size="10.00">TDCROStatus</text>
<text text-anchor="start" x="4" y="-91" font-family="Helvetica,sans-Serif" font-size="10.00">+</text>
<text text-anchor="start" x="14" y="-91" font-family="Helvetica,sans-Serif" font-size="10.00">ChAlmFullFlags</text>
<text text-anchor="start" x="4" y="-74.25" font-family="Helvetica,sans-Serif" font-size="10.00">+</text>
<text text-anchor="start" x="14" y="-74.25" font-family="Helvetica,sans-Serif" font-size="10.00">ReadoutFlags</text>
<text text-anchor="start" x="4" y="-57.5" font-family="Helvetica,sans-Serif" font-size="10.00">+</text>
<text text-anchor="start" x="14" y="-57.5" font-family="Helvetica,sans-Serif" font-size="10.00">TotTrg_cnt</text>
<text text-anchor="start" x="4" y="-40.75" font-family="Helvetica,sans-Serif" font-size="10.00">+</text>
<text text-anchor="start" x="14" y="-40.75" font-family="Helvetica,sans-Serif" font-size="10.00">RejTrg_cnt</text>
<text text-anchor="start" x="4" y="-24" font-family="Helvetica,sans-Serif" font-size="10.00">+</text>
<text text-anchor="start" x="14" y="-24" font-family="Helvetica,sans-Serif" font-size="10.00">SupprTrg_cnt</text>
<text text-anchor="start" x="44.25" y="-7.25" font-family="Helvetica,sans-Serif" font-size="10.00"> </text>
<polygon fill="#666666" stroke="#666666" points="0,-270 0,-270 90.75,-270 90.75,-270 0,-270"/>
<polygon fill="#666666" stroke="#666666" points="0,-18.75 0,-18.75 12,-18.75 12,-18.75 0,-18.75"/>
<polygon fill="#666666" stroke="#666666" points="12,-18.75 12,-18.75 90.75,-18.75 90.75,-18.75 12,-18.75"/>
<polygon fill="none" stroke="#666666" points="0,0 0,-288.75 90.75,-288.75 90.75,0 0,0"/>
</a>
</g>
</g>
</g>
</svg>
