<?xml version="1.0" encoding="UTF-8" standalone="no"?>
<!DOCTYPE svg PUBLIC "-//W3C//DTD SVG 1.1//EN"
 "http://www.w3.org/Graphics/SVG/1.1/DTD/svg11.dtd">
<!-- Generated by graphviz version 12.2.1 (20241206.2353)
 -->
<!-- Title: TestEvent_t Pages: 1 -->
<svg width="73pt" height="113pt"
 viewBox="0.00 0.00 73.25 112.50" xmlns="http://www.w3.org/2000/svg" xmlns:xlink="http://www.w3.org/1999/xlink">
<g id="graph0" class="graph" transform="scale(1 1) rotate(0) translate(4 108.5)">
<title>TestEvent_t</title>
<!-- Node1 -->
<g id="Node000001" class="node">
<title>Node1</title>
<g id="a_Node000001"><a xlink:title="Test Mode Event data structure.">
<polygon fill="#999999" stroke="none" points="65.25,-104.5 0,-104.5 0,0 65.25,0 65.25,-104.5"/>
<text text-anchor="start" x="5.62" y="-91" font-family="Helvetica,sans-Serif" font-size="10.00">TestEvent_t</text>
<text text-anchor="start" x="4" y="-74.25" font-family="Helvetica,sans-Serif" font-size="10.00">+</text>
<text text-anchor="start" x="14" y="-74.25" font-family="Helvetica,sans-Serif" font-size="10.00">tstamp_us</text>
<text text-anchor="start" x="4" y="-57.5" font-family="Helvetica,sans-Serif" font-size="10.00">+</text>
<text text-anchor="start" x="14" y="-57.5" font-family="Helvetica,sans-Serif" font-size="10.00">trigger_id</text>
<text text-anchor="start" x="4" y="-40.75" font-family="Helvetica,sans-Serif" font-size="10.00">+</text>
<text text-anchor="start" x="14" y="-40.75" font-family="Helvetica,sans-Serif" font-size="10.00">nwords</text>
<text text-anchor="start" x="4" y="-24" font-family="Helvetica,sans-Serif" font-size="10.00">+</text>
<text text-anchor="start" x="14" y="-24" font-family="Helvetica,sans-Serif" font-size="10.00">test_data</text>
<text text-anchor="start" x="31.5" y="-7.25" font-family="Helvetica,sans-Serif" font-size="10.00"> </text>
<polygon fill="#666666" stroke="#666666" points="0,-85.75 0,-85.75 65.25,-85.75 65.25,-85.75 0,-85.75"/>
<polygon fill="#666666" stroke="#666666" points="0,-18.75 0,-18.75 12,-18.75 12,-18.75 0,-18.75"/>
<polygon fill="#666666" stroke="#666666" points="12,-18.75 12,-18.75 65.25,-18.75 65.25,-18.75 12,-18.75"/>
<polygon fill="none" stroke="#666666" points="0,0 0,-104.5 65.25,-104.5 65.25,0 0,0"/>
</a>
</g>
</g>
</g>
</svg>
